<svg width="19" height="18" viewBox="0 0 19 18" fill="none" xmlns="http://www.w3.org/2000/svg">
<path d="M4.8381 14.4173C4.3806 14.4173 3.9531 14.263 3.6456 13.9765C3.2556 13.6165 3.0681 13.0728 3.1356 12.4851L3.4131 10.1047C3.4656 9.65651 3.7431 9.06141 4.0656 8.73815L10.2231 2.35373C11.7606 0.759457 13.3656 0.715376 14.9931 2.22148C16.6206 3.72759 16.6656 5.29982 15.1281 6.89409L8.9706 13.2785C8.6556 13.6091 8.0706 13.9177 7.6131 13.9912L5.1981 14.3952C5.0706 14.4026 4.9581 14.4173 4.8381 14.4173ZM12.6306 2.21414C12.0531 2.21414 11.5506 2.56679 11.0406 3.09576L4.8831 9.48753C4.7331 9.64182 4.5606 10.0092 4.5306 10.2222L4.2531 12.6026C4.2231 12.845 4.2831 13.0434 4.4181 13.1683C4.5531 13.2932 4.7556 13.3373 5.0031 13.3006L7.4181 12.8965C7.6356 12.8597 7.9956 12.6687 8.1456 12.5144L14.3031 6.13001C15.2331 5.16023 15.5706 4.26391 14.2131 3.01494C13.6131 2.44924 13.0956 2.21414 12.6306 2.21414Z" fill="#292D32" fill-opacity="0.85"/>
<path d="M4.95511 9.55691L4.9548 9.55724C4.89089 9.62297 4.81584 9.74209 4.75212 9.87584C4.68882 10.0087 4.64298 10.1428 4.62978 10.235L4.35242 12.6142L4.35234 12.6149C4.32504 12.8355 4.38124 12.998 4.48601 13.0949C4.59073 13.1918 4.75789 13.2357 4.9875 13.2018L7.40144 12.7979L4.95511 9.55691ZM4.95511 9.55691L11.1126 3.16517C11.1126 3.16516 11.1126 3.16515 11.1126 3.16514C11.6189 2.63999 12.0963 2.31414 12.6306 2.31414C13.0598 2.31414 13.5538 2.5308 14.1445 3.0877L14.1445 3.08771M4.95511 9.55691L14.1445 3.08771M14.1445 3.08771L14.1454 3.08854M14.1445 3.08771L14.1454 3.08854M14.1454 3.08854C14.8142 3.7039 15.0444 4.21305 15.0161 4.67101C14.9875 5.1347 14.6931 5.57882 14.231 6.06074C14.231 6.06076 14.2309 6.06078 14.2309 6.0608L8.0739 12.4447C8.07385 12.4448 8.0738 12.4448 8.07376 12.4449M14.1454 3.08854L8.07376 12.4449M8.07376 12.4449C8.00922 12.5112 7.89222 12.5917 7.76054 12.6611C7.62885 12.7305 7.49532 12.782 7.40159 12.7978L8.07376 12.4449ZM3.03627 12.4735L3.03625 12.4736C2.96556 13.0892 3.16155 13.6656 3.5776 14.0498C3.90593 14.3556 4.35877 14.5173 4.8381 14.5173C4.9186 14.5173 5.00019 14.5107 5.0799 14.5042C5.12188 14.5008 5.16334 14.4974 5.20385 14.4951L5.20388 14.4957L5.2146 14.4939L7.62895 14.0899C7.62907 14.0899 7.62919 14.0899 7.62931 14.0898C8.10822 14.0128 8.71275 13.694 9.04282 13.3477C9.04288 13.3476 9.04294 13.3476 9.04299 13.3475L15.2001 6.96351L15.1281 6.89409L15.2001 6.96351C15.9797 6.15513 16.371 5.33883 16.3474 4.52184C16.3239 3.70488 15.8862 2.91172 15.061 2.14809C14.2356 1.38424 13.4033 1.002 12.5716 1.025C11.7398 1.04801 10.931 1.47568 10.1511 2.28431L3.9942 8.66813C3.82288 8.84005 3.66716 9.07984 3.54774 9.33174C3.42813 9.58402 3.3416 9.85547 3.31377 10.093L3.31377 10.0931L3.03627 12.4735Z" stroke="#292D32" stroke-opacity="0.85" stroke-width="0.2"/>
<path d="M13.6882 8.12102C13.6732 8.12102 13.6507 8.12102 13.6357 8.12102C11.2957 7.89327 9.41319 6.15206 9.05319 3.87453C9.00819 3.57331 9.21819 3.29413 9.52569 3.2427C9.83319 3.19862 10.1182 3.40433 10.1707 3.70555C10.4557 5.48349 11.9257 6.85001 13.7557 7.02634C14.0632 7.05572 14.2882 7.32756 14.2582 7.62878C14.2207 7.90796 13.9732 8.12102 13.6882 8.12102Z" fill="#292D32" fill-opacity="0.85"/>
<path d="M13.626 8.22055L13.626 8.22102H13.6357H13.6358H13.6359H13.636H13.636H13.6361H13.6362H13.6363H13.6364H13.6365H13.6366H13.6367H13.6368H13.6368H13.6369H13.637H13.6371H13.6372H13.6373H13.6374H13.6375H13.6376H13.6377H13.6378H13.6378H13.6379H13.638H13.6381H13.6382H13.6383H13.6384H13.6385H13.6386H13.6387H13.6388H13.6389H13.639H13.6391H13.6391H13.6392H13.6393H13.6394H13.6395H13.6396H13.6397H13.6398H13.6399H13.64H13.6401H13.6402H13.6403H13.6404H13.6405H13.6406H13.6407H13.6408H13.6409H13.641H13.6411H13.6411H13.6412H13.6413H13.6414H13.6415H13.6416H13.6417H13.6418H13.6419H13.642H13.6421H13.6422H13.6423H13.6424H13.6425H13.6426H13.6427H13.6428H13.6429H13.643H13.6431H13.6432H13.6433H13.6434H13.6435H13.6436H13.6437H13.6438H13.6439H13.644H13.6441H13.6442H13.6443H13.6444H13.6445H13.6446H13.6447H13.6448H13.6449H13.645H13.6451H13.6452H13.6453H13.6454H13.6455H13.6456H13.6457H13.6458H13.6459H13.646H13.6461H13.6462H13.6463H13.6465H13.6466H13.6467H13.6468H13.6469H13.647H13.6471H13.6472H13.6473H13.6474H13.6475H13.6476H13.6477H13.6478H13.6479H13.648H13.6481H13.6482H13.6483H13.6484H13.6485H13.6486H13.6487H13.6488H13.6489H13.6491H13.6492H13.6493H13.6494H13.6495H13.6496H13.6497H13.6498H13.6499H13.65H13.6501H13.6502H13.6503H13.6504H13.6505H13.6506H13.6507H13.6509H13.651H13.6511H13.6512H13.6513H13.6514H13.6515H13.6516H13.6517H13.6518H13.6519H13.652H13.6521H13.6522H13.6523H13.6525H13.6526H13.6527H13.6528H13.6529H13.653H13.6531H13.6532H13.6533H13.6534H13.6535H13.6536H13.6537H13.6539H13.654H13.6541H13.6542H13.6543H13.6544H13.6545H13.6546H13.6547H13.6548H13.6549H13.655H13.6552H13.6553H13.6554H13.6555H13.6556H13.6557H13.6558H13.6559H13.656H13.6561H13.6562H13.6564H13.6565H13.6566H13.6567H13.6568H13.6569H13.657H13.6571H13.6572H13.6573H13.6574H13.6576H13.6577H13.6578H13.6579H13.658H13.6581H13.6582H13.6583H13.6584H13.6585H13.6586H13.6588H13.6589H13.659H13.6591H13.6592H13.6593H13.6594H13.6595H13.6596H13.6597H13.6599H13.66H13.6601H13.6602H13.6603H13.6604H13.6605H13.6606H13.6607H13.6608H13.6609H13.6611H13.6612H13.6613H13.6614H13.6615H13.6616H13.6617H13.6618H13.6619H13.662H13.6622H13.6623H13.6624H13.6625H13.6626H13.6627H13.6628H13.6629H13.663H13.6631H13.6633H13.6634H13.6635H13.6636H13.6637H13.6638H13.6639H13.664H13.6641H13.6642H13.6644H13.6645H13.6646H13.6647H13.6648H13.6649H13.665H13.6651H13.6652H13.6653H13.6655H13.6656H13.6657H13.6658H13.6659H13.666H13.6661H13.6662H13.6663H13.6664H13.6665H13.6667H13.6668H13.6669H13.667H13.6671H13.6672H13.6673H13.6674H13.6675H13.6676H13.6677H13.6679H13.668H13.6681H13.6682H13.6683H13.6684H13.6685H13.6686H13.6687H13.6688H13.6689H13.669H13.6692H13.6693H13.6694H13.6695H13.6696H13.6697H13.6698H13.6699H13.67H13.6701H13.6702H13.6703H13.6705H13.6706H13.6707H13.6708H13.6709H13.671H13.6711H13.6712H13.6713H13.6714H13.6715H13.6716H13.6717H13.6719H13.672H13.6721H13.6722H13.6723H13.6724H13.6725H13.6726H13.6727H13.6728H13.6729H13.673H13.6731H13.6732H13.6733H13.6735H13.6736H13.6737H13.6738H13.6739H13.674H13.6741H13.6742H13.6743H13.6744H13.6745H13.6746H13.6747H13.6748H13.6749H13.675H13.6751H13.6752H13.6753H13.6755H13.6756H13.6757H13.6758H13.6759H13.676H13.6761H13.6762H13.6763H13.6764H13.6765H13.6766H13.6767H13.6768H13.6769H13.677H13.6771H13.6772H13.6773H13.6774H13.6775H13.6776H13.6777H13.6778H13.6779H13.678H13.6781H13.6782H13.6783H13.6784H13.6786H13.6787H13.6788H13.6789H13.679H13.6791H13.6792H13.6793H13.6794H13.6795H13.6796H13.6797H13.6798H13.6799H13.68H13.6801H13.6802H13.6803H13.6804H13.6805H13.6806H13.6807H13.6808H13.6809H13.681H13.6811H13.6812H13.6813H13.6814H13.6815H13.6816H13.6817H13.6818H13.6818H13.6819H13.682H13.6821H13.6822H13.6823H13.6824H13.6825H13.6826H13.6827H13.6828H13.6829H13.683H13.6831H13.6832H13.6833H13.6834H13.6835H13.6836H13.6837H13.6838H13.6839H13.684H13.6841H13.6842H13.6843H13.6844H13.6844H13.6845H13.6846H13.6847H13.6848H13.6849H13.685H13.6851H13.6852H13.6853H13.6854H13.6855H13.6856H13.6857H13.6858H13.6858H13.6859H13.686H13.6861H13.6862H13.6863H13.6864H13.6865H13.6866H13.6867H13.6868H13.6869H13.6869H13.687H13.6871H13.6872H13.6873H13.6874H13.6875H13.6876H13.6877H13.6877H13.6878H13.6879H13.688H13.6881H13.6882C14.0221 8.22102 14.313 7.9721 14.3573 7.64209L14.3574 7.6421L14.3577 7.63869C14.3933 7.28128 14.1268 6.96138 13.7653 6.9268C11.9795 6.75473 10.5471 5.42169 10.2694 3.68973L10.2694 3.68972L10.2692 3.68838C10.2073 3.33306 9.87165 3.09208 9.5115 3.14371L9.51149 3.14369L9.50919 3.14407C9.1506 3.20404 8.90083 3.53146 8.95429 3.88931L8.95428 3.88931L8.95441 3.89014C9.32175 6.21407 11.2421 7.98852 13.626 8.22055Z" stroke="#292D32" stroke-opacity="0.85" stroke-width="0.2"/>
<path d="M16.4331 16.7903H2.93311C2.62561 16.7903 2.37061 16.5405 2.37061 16.2392C2.37061 15.938 2.62561 15.6882 2.93311 15.6882H16.4331C16.7406 15.6882 16.9956 15.938 16.9956 16.2392C16.9956 16.5405 16.7406 16.7903 16.4331 16.7903Z" fill="#292D32" fill-opacity="0.85"/>
<path d="M2.93311 16.8903H16.4331C16.7939 16.8903 17.0956 16.5976 17.0956 16.2392C17.0956 15.8809 16.7939 15.5882 16.4331 15.5882H2.93311C2.57233 15.5882 2.27061 15.8809 2.27061 16.2392C2.27061 16.5976 2.57233 16.8903 2.93311 16.8903Z" stroke="#292D32" stroke-opacity="0.85" stroke-width="0.2"/>
</svg>
