<svg width="25" height="25" viewBox="0 0 25 25" fill="none" xmlns="http://www.w3.org/2000/svg">
<path d="M12.9123 22.1649C18.4312 22.1649 22.9051 17.6878 22.9051 12.1649C22.9051 6.64207 18.4312 2.16492 12.9123 2.16492C7.39339 2.16492 2.91943 6.64207 2.91943 12.1649C2.91943 17.6878 7.39339 22.1649 12.9123 22.1649Z" stroke="#292D32" stroke-width="2" stroke-linecap="round" stroke-linejoin="round"/>
<path d="M8.91529 3.16492H9.91458C7.96597 9.00492 7.96597 15.3249 9.91458 21.1649H8.91529" stroke="#292D32" stroke-width="2" stroke-linecap="round" stroke-linejoin="round"/>
<path d="M15.9102 3.16492C17.8588 9.00492 17.8588 15.3249 15.9102 21.1649" stroke="#292D32" stroke-width="2" stroke-linecap="round" stroke-linejoin="round"/>
<path d="M3.9187 16.1649V15.1649C9.75453 17.1149 16.07 17.1149 21.9058 15.1649V16.1649" stroke="#292D32" stroke-width="2" stroke-linecap="round" stroke-linejoin="round"/>
<path d="M3.9187 9.16489C9.75453 7.21489 16.07 7.21489 21.9058 9.16489" stroke="#292D32" stroke-width="2" stroke-linecap="round" stroke-linejoin="round"/>
</svg>
