<svg width="49" height="49" viewBox="0 0 49 49" fill="none" xmlns="http://www.w3.org/2000/svg">
<g filter="url(#filter0_d_60_6812)">
<rect x="6.68628" y="6.48981" width="32" height="32" rx="16" fill="url(#paint0_linear_60_6812)"/>
</g>
<path fill-rule="evenodd" clip-rule="evenodd" d="M20.5963 13.736C20.4979 13.736 20.4142 13.8077 20.3972 13.9046C19.9085 16.6933 18.5629 18.9063 16.8452 19.7659C16.697 19.8401 16.5966 19.9877 16.5966 20.1534C16.5966 20.3191 16.697 20.4667 16.8452 20.5409C18.5629 21.4005 19.9085 23.6135 20.3972 26.4022C20.4142 26.4991 20.4979 26.5708 20.5963 26.5708C20.6946 26.5708 20.7784 26.4991 20.7953 26.4022C21.284 23.6139 22.6293 21.401 24.3467 20.5412C24.495 20.467 24.5955 20.3192 24.5955 20.1534C24.5955 19.9876 24.495 19.8398 24.3467 19.7656C22.6293 18.9057 21.284 16.6929 20.7954 13.9046C20.7784 13.8077 20.6946 13.736 20.5963 13.736Z" fill="white"/>
<path fill-rule="evenodd" clip-rule="evenodd" d="M26.2585 23.1648C26.1966 23.1648 26.1439 23.21 26.1332 23.271C25.8256 25.0261 24.9788 26.419 23.8978 26.9602C23.8045 27.0069 23.7413 27.0999 23.7413 27.2042C23.7413 27.3085 23.8045 27.4015 23.8978 27.4481C24.979 27.9892 25.826 29.3823 26.1336 31.1376C26.1443 31.1985 26.1969 31.2436 26.2588 31.2436C26.3206 31.2436 26.3732 31.1985 26.3839 31.1376C26.6915 29.3823 27.5385 27.9893 28.6197 27.4482C28.7129 27.4015 28.7761 27.3086 28.7761 27.2043C28.7761 27.1 28.7129 27.0071 28.6197 26.9604C27.5385 26.4193 26.6915 25.0263 26.3839 23.271C26.3732 23.21 26.3205 23.1648 26.2585 23.1648Z" fill="white"/>
<defs>
<filter id="filter0_d_60_6812" x="0.686279" y="0.489807" width="48" height="48" filterUnits="userSpaceOnUse" color-interpolation-filters="sRGB">
<feFlood flood-opacity="0" result="BackgroundImageFix"/>
<feColorMatrix in="SourceAlpha" type="matrix" values="0 0 0 0 0 0 0 0 0 0 0 0 0 0 0 0 0 0 127 0" result="hardAlpha"/>
<feMorphology radius="2" operator="dilate" in="SourceAlpha" result="effect1_dropShadow_60_6812"/>
<feOffset dx="2" dy="2"/>
<feGaussianBlur stdDeviation="3"/>
<feComposite in2="hardAlpha" operator="out"/>
<feColorMatrix type="matrix" values="0 0 0 0 0.840234 0 0 0 0 0.778884 0 0 0 0 0.709531 0 0 0 0.4 0"/>
<feBlend mode="normal" in2="BackgroundImageFix" result="effect1_dropShadow_60_6812"/>
<feBlend mode="normal" in="SourceGraphic" in2="effect1_dropShadow_60_6812" result="shape"/>
</filter>
<linearGradient id="paint0_linear_60_6812" x1="9.27689" y1="33.2171" x2="38.6863" y2="11.3019" gradientUnits="userSpaceOnUse">
<stop stop-color="#F89C34"/>
<stop offset="1" stop-color="#FF4C57"/>
</linearGradient>
</defs>
</svg>
