<svg width="15" height="14" viewBox="0 0 15 14" fill="none" xmlns="http://www.w3.org/2000/svg">
<g clip-path="url(#clip0_253_1019)">
<rect width="14" height="14" transform="translate(0.0991211)" fill="white" fill-opacity="0.01"/>
<g clip-path="url(#clip1_253_1019)">
<path d="M13.6528 6.79799L0.582448 0.244863C0.529323 0.2183 0.468386 0.21205 0.410573 0.226113C0.34641 0.241975 0.291146 0.282615 0.256882 0.339136C0.222619 0.395656 0.212147 0.463451 0.227761 0.527675L1.57464 6.0308C1.59495 6.11361 1.65589 6.1808 1.73714 6.20736L4.04495 6.99955L1.7387 7.79174C1.65745 7.81986 1.59651 7.88549 1.57776 7.9683L0.227761 13.4792C0.213698 13.5371 0.219948 13.598 0.246511 13.6496C0.307448 13.773 0.457448 13.823 0.582448 13.762L13.6528 7.24642C13.7012 7.22299 13.7403 7.18236 13.7653 7.13549C13.8262 7.01049 13.7762 6.86049 13.6528 6.79799ZM1.76839 11.9136L2.55432 8.70111L7.16682 7.1183C7.20276 7.1058 7.23245 7.07768 7.24495 7.04018C7.26682 6.97455 7.23245 6.90424 7.16682 6.8808L2.55432 5.29955L1.77151 2.09955L11.584 7.01986L1.76839 11.9136Z" fill="white"/>
</g>
</g>
<defs>
<clipPath id="clip0_253_1019">
<rect width="14" height="14" fill="white" transform="translate(0.0991211)"/>
</clipPath>
<clipPath id="clip1_253_1019">
<rect width="14" height="14" fill="white" transform="translate(0.0991211)"/>
</clipPath>
</defs>
</svg>
