<svg width="21" height="21" viewBox="0 0 21 21" fill="none" xmlns="http://www.w3.org/2000/svg">
<path d="M15.6597 9.37601V12.7093C15.6597 12.926 15.6514 13.1343 15.6264 13.3343C15.4347 15.5843 14.1097 16.701 11.668 16.701H11.3347C11.1264 16.701 10.9263 16.801 10.8013 16.9677L9.80136 18.301C9.35969 18.8927 8.64302 18.8927 8.20135 18.301L7.20134 16.9677C7.09301 16.826 6.85135 16.701 6.66802 16.701H6.33469C3.67636 16.701 2.34302 16.0427 2.34302 12.7093V9.37601C2.34302 6.93435 3.46802 5.60935 5.70969 5.41768C5.90969 5.39268 6.11802 5.38434 6.33469 5.38434H11.668C14.3264 5.38434 15.6597 6.71768 15.6597 9.37601Z" stroke="#292D32" stroke-opacity="0.85" stroke-width="1.5" stroke-miterlimit="10" stroke-linecap="round" stroke-linejoin="round"/>
<path d="M18.9931 6.0427V9.37603C18.9931 11.826 17.868 13.1427 15.6264 13.3344C15.6514 13.1344 15.6597 12.926 15.6597 12.7094V9.37603C15.6597 6.7177 14.3264 5.38436 11.668 5.38436H6.33472C6.11805 5.38436 5.90972 5.3927 5.70972 5.4177C5.90138 3.17603 7.22638 2.05103 9.66805 2.05103H15.0014C17.6597 2.05103 18.9931 3.38437 18.9931 6.0427Z" stroke="#292D32" stroke-opacity="0.85" stroke-width="1.5" stroke-miterlimit="10" stroke-linecap="round" stroke-linejoin="round"/>
<path d="M11.9224 11.426H11.9299" stroke="#292D32" stroke-opacity="0.85" stroke-width="2" stroke-linecap="round" stroke-linejoin="round"/>
<path d="M9.00593 11.426H9.01343" stroke="#292D32" stroke-opacity="0.85" stroke-width="2" stroke-linecap="round" stroke-linejoin="round"/>
<path d="M6.08919 11.426H6.09669" stroke="#292D32" stroke-opacity="0.85" stroke-width="2" stroke-linecap="round" stroke-linejoin="round"/>
</svg>
