<svg width="25" height="25" viewBox="0 0 25 25" fill="none" xmlns="http://www.w3.org/2000/svg">
<path d="M12.8779 23.2988C12.2079 23.2988 11.5279 23.1488 10.9979 22.8388L5.49792 19.6688C3.25792 18.1588 3.11792 17.9288 3.11792 15.5588V9.77881C3.11792 7.40881 3.24792 7.17881 5.44792 5.68881L10.9879 2.48881C12.0379 1.87881 13.6879 1.87881 14.7379 2.48881L20.2579 5.66881C22.4979 7.17881 22.6379 7.40881 22.6379 9.77881V15.5488C22.6379 17.9188 22.5079 18.1488 20.3079 19.6388L14.7679 22.8388C14.2279 23.1488 13.5479 23.2988 12.8779 23.2988ZM12.8779 3.53881C12.4579 3.53881 12.0479 3.61881 11.7579 3.78881L6.25792 6.96881C4.62792 8.06881 4.62792 8.06881 4.62792 9.77881V15.5488C4.62792 17.2588 4.62792 17.2588 6.29792 18.3888L11.7579 21.5388C12.3479 21.8788 13.4179 21.8788 14.0079 21.5388L19.5079 18.3588C21.1279 17.2588 21.1279 17.2588 21.1279 15.5488V9.77881C21.1279 8.06881 21.1279 8.06881 19.4579 6.93881L13.9979 3.78881C13.7079 3.61881 13.2979 3.53881 12.8779 3.53881Z" fill="#292D32" stroke="#292D32" stroke-width="0.8"/>
<path d="M12.8779 16.4188C10.8079 16.4188 9.12793 14.7388 9.12793 12.6688C9.12793 10.5988 10.8079 8.91882 12.8779 8.91882C14.9479 8.91882 16.6279 10.5988 16.6279 12.6688C16.6279 14.7388 14.9479 16.4188 12.8779 16.4188ZM12.8779 10.4188C11.6379 10.4188 10.6279 11.4288 10.6279 12.6688C10.6279 13.9088 11.6379 14.9188 12.8779 14.9188C14.1179 14.9188 15.1279 13.9088 15.1279 12.6688C15.1279 11.4288 14.1179 10.4188 12.8779 10.4188Z" fill="#292D32" stroke="#292D32" stroke-width="0.8"/>
</svg>
