<svg width="25" height="25" viewBox="0 0 25 25" fill="none" xmlns="http://www.w3.org/2000/svg">
<path d="M14.6078 4.1789L16.3678 7.6989C16.6078 8.1889 17.2478 8.6589 17.7878 8.7489L20.9778 9.2789C23.0178 9.6189 23.4978 11.0989 22.0278 12.5589L19.5478 15.0389C19.1278 15.4589 18.8978 16.2689 19.0278 16.8489L19.7378 19.9189C20.2978 22.3489 19.0078 23.2889 16.8578 22.0189L13.8678 20.2489C13.3278 19.9289 12.4378 19.9289 11.8878 20.2489L8.89784 22.0189C6.75784 23.2889 5.45784 22.3389 6.01784 19.9189L6.72784 16.8489C6.85784 16.2689 6.62784 15.4589 6.20784 15.0389L3.72784 12.5589C2.26784 11.0989 2.73784 9.6189 4.77784 9.2789L7.96784 8.7489C8.49784 8.6589 9.13784 8.1889 9.37784 7.6989L11.1378 4.1789C12.0978 2.2689 13.6578 2.2689 14.6078 4.1789Z" stroke="#292D32" stroke-width="2" stroke-linecap="round" stroke-linejoin="round"/>
</svg>
