<svg width="8" height="13" viewBox="0 0 8 13" fill="none" xmlns="http://www.w3.org/2000/svg">
<path fill-rule="evenodd" clip-rule="evenodd" d="M3.81395 0.915771C3.72347 0.915771 3.64646 0.981762 3.63085 1.07088C3.18108 3.63744 1.94268 5.67421 0.361781 6.46535C0.22541 6.5336 0.132991 6.66947 0.132991 6.82196C0.132991 6.97446 0.22541 7.11032 0.361781 7.17857C1.94269 7.96972 3.18109 10.0065 3.63085 12.5731C3.64647 12.6622 3.72347 12.7282 3.81395 12.7282C3.90442 12.7282 3.98142 12.6622 3.99704 12.5731C4.44677 10.0067 5.68501 7.97003 7.26575 7.17875C7.40217 7.11046 7.49463 6.97453 7.49463 6.82196C7.49463 6.6694 7.40217 6.53346 7.26575 6.46517C5.68502 5.67389 4.44678 3.63724 3.99705 1.07088C3.98143 0.981762 3.90443 0.915771 3.81395 0.915771Z" fill="white"/>
</svg>
