<svg width="17" height="18" viewBox="0 0 17 18" fill="none" xmlns="http://www.w3.org/2000/svg">
<path d="M9.98054 2.63254L11.3005 5.27254C11.4805 5.64004 11.9605 5.99254 12.3655 6.06004L14.758 6.45754C16.288 6.71254 16.648 7.82254 15.5455 8.91754L13.6855 10.7775C13.3705 11.0925 13.198 11.7 13.2955 12.135L13.828 14.4375C14.248 16.26 13.2805 16.965 11.668 16.0125L9.42554 14.685C9.02054 14.445 8.35304 14.445 7.94054 14.685L5.69804 16.0125C4.09304 16.965 3.11804 16.2525 3.53804 14.4375L4.07054 12.135C4.16804 11.7 3.99554 11.0925 3.68054 10.7775L1.82054 8.91754C0.725537 7.82254 1.07804 6.71254 2.60804 6.45754L5.00054 6.06004C5.39804 5.99254 5.87804 5.64004 6.05804 5.27254L7.37804 2.63254C8.09804 1.20004 9.26804 1.20004 9.98054 2.63254Z" stroke="#292D32" stroke-width="1.5" stroke-linecap="round" stroke-linejoin="round"/>
</svg>
